<?xml version="1.0" encoding="utf-8"?>
<!-- Generator: Adobe Illustrator 25.4.1, SVG Export Plug-In . SVG Version: 6.00 Build 0)  -->
<svg version="1.1" id="Layer_1" xmlns="http://www.w3.org/2000/svg" xmlns:xlink="http://www.w3.org/1999/xlink" x="0px" y="0px"
	 viewBox="0 0 24 24" style="enable-background:new 0 0 24 24;" xml:space="preserve">
<style type="text/css">
	.st0{fill:#0094F5;}
</style>
<path class="st0" d="M10.5,10V7.3c0-0.3,0.2-0.6,0.6-0.6H13c0.3,0,0.6,0.2,0.6,0.6v5c0,0.1,0,0.1-0.1,0.2L13,12.9
	c-0.1,0.1-0.1,0.3,0,0.4l0.5,0.5c0.1,0.1,0.1,0.1,0.1,0.2v2.7c0,0.3-0.2,0.6-0.6,0.6h-1.9c-0.3,0-0.6-0.2-0.6-0.6v-5
	c0-0.1,0-0.1,0.1-0.2l0.5-0.5c0.1-0.1,0.1-0.3,0-0.4l-0.5-0.5C10.5,10.1,10.5,10.1,10.5,10z M19.1,12c0-3.9-3.2-7.1-7.1-7.1
	S4.9,8.1,4.9,12s3.2,7.1,7.1,7.1S19.1,15.9,19.1,12z M21.4,12c0,5.2-4.2,9.4-9.4,9.4c-5.2,0-9.4-4.2-9.4-9.4c0-5.2,4.2-9.4,9.4-9.4
	C17.2,2.6,21.4,6.8,21.4,12z M0.8,12c0,6.2,5,11.2,11.2,11.2s11.2-5,11.2-11.2S18.2,0.8,12,0.8S0.8,5.8,0.8,12z M0,12
	C0,5.4,5.4,0,12,0s12,5.4,12,12s-5.4,12-12,12S0,18.6,0,12z"/>
</svg>
