<?xml version="1.0" encoding="utf-8"?>
<!-- Generator: Adobe Illustrator 25.4.1, SVG Export Plug-In . SVG Version: 6.00 Build 0)  -->
<svg version="1.1" id="Layer_1" xmlns="http://www.w3.org/2000/svg" xmlns:xlink="http://www.w3.org/1999/xlink" x="0px" y="0px"
	 viewBox="0 0 24 24" style="enable-background:new 0 0 24 24;" xml:space="preserve">
<style type="text/css">
	.st0{fill:#231F20;}
</style>
<path class="st0" d="M9.7,2.1c-0.6-0.6-1.5-0.6-2,0c0,0,0,0,0,0h0c-0.3,0.3-0.4,0.7-0.4,1c0,0.4,0.2,0.8,0.4,1l0,0
	c0.3,0.3,0.6,0.4,1,0.4c0.4,0,0.8-0.2,1-0.4l0,0c0.3-0.3,0.4-0.6,0.4-1C10.1,2.8,10,2.4,9.7,2.1L9.7,2.1z M8.7,22.3
	c0.4,0,0.8-0.2,1-0.4l0,0c0.3-0.3,0.4-0.6,0.4-1c0-0.4-0.2-0.8-0.4-1h0c-0.3-0.3-0.6-0.4-1-0.4c-0.4,0-0.8,0.2-1,0.4h0
	c-0.3,0.3-0.4,0.6-0.4,1c0,0.4,0.2,0.8,0.4,1l0,0C7.9,22.1,8.3,22.3,8.7,22.3z M16.6,17.8c0.4-0.1,0.7-0.3,0.9-0.7l0-0.1
	c0.2-0.3,0.2-0.7,0.1-1.1c-0.1-0.4-0.3-0.7-0.7-0.9l0,0c-0.3-0.2-0.7-0.2-1.1-0.1c-0.4,0.1-0.7,0.3-0.9,0.7
	c-0.2,0.3-0.2,0.7-0.1,1.1c0.1,0.4,0.3,0.7,0.7,0.9h0C15.8,17.9,16.2,17.9,16.6,17.8z M10.2,10.5c-0.4-0.4-0.9-0.6-1.5-0.6
	c-0.6,0-1.1,0.2-1.5,0.6c-0.4,0.4-0.6,0.9-0.6,1.5s0.2,1.1,0.6,1.5c0.8,0.8,2.1,0.8,2.9,0c0,0,0,0,0,0c0.4-0.4,0.6-0.9,0.6-1.5
	S10.5,10.9,10.2,10.5z M9.3,8c0.8,0.1,1.6,0.6,2.2,1.1h0c0.1,0.1,0.2,0.2,0.3,0.3l1.4-0.9C13,8,13,7.4,13.2,6.8
	c0.2-0.8,0.7-1.5,1.5-1.9l0,0c0.7-0.4,1.6-0.5,2.3-0.3c0.8,0.2,1.5,0.7,1.9,1.5v0c0.4,0.8,0.5,1.6,0.3,2.4c-0.2,0.8-0.7,1.5-1.5,1.9
	l-0.2,0.1h0c-0.7,0.3-1.4,0.4-2.2,0.2c-0.6-0.2-1.1-0.5-1.5-0.9l-1.4,0.8c0.3,0.9,0.3,1.9,0,2.9l1.4,0.8c0.4-0.5,0.9-0.8,1.5-0.9
	c0.8-0.2,1.7-0.1,2.4,0.3l0,0v0c0.7,0.4,1.2,1.1,1.4,1.9c0.2,0.8,0.1,1.7-0.3,2.4l0,0.1l0,0c-0.4,0.7-1.1,1.2-1.9,1.4
	c-0.8,0.2-1.7,0.1-2.4-0.3v0c-0.7-0.4-1.2-1.1-1.5-1.9c-0.2-0.6-0.1-1.2,0-1.8l-1.4-0.8c-0.1,0.1-0.2,0.2-0.3,0.3l0,0
	c-0.6,0.6-1.3,1-2.2,1.1v1.7c0.6,0.1,1.1,0.4,1.6,0.9l0,0c0.6,0.6,0.9,1.4,0.9,2.2c0,0.9-0.4,1.7-0.9,2.2l0,0
	C10.3,23.7,9.5,24,8.7,24c-0.8,0-1.6-0.3-2.2-0.9h0v0c-0.6-0.6-0.9-1.4-0.9-2.2c0-0.9,0.3-1.7,0.9-2.2v0h0c0.4-0.4,1-0.7,1.6-0.9V16
	c-0.8-0.1-1.6-0.5-2.2-1.1l0,0c-0.8-0.8-1.2-1.8-1.2-2.9c0-1.1,0.5-2.1,1.2-2.9h0C6.4,8.5,7.2,8.1,8,8V6.3C7.4,6.2,6.9,5.9,6.5,5.4
	h0v0C5.9,4.8,5.6,4,5.6,3.2c0-0.9,0.3-1.7,0.9-2.2l0,0C7.1,0.3,7.9,0,8.7,0c0.9,0,1.6,0.4,2.2,0.9v0h0c0.6,0.6,0.9,1.4,0.9,2.2
	c0,0.9-0.4,1.7-0.9,2.2l0,0c-0.4,0.4-1,0.7-1.6,0.9C9.3,6.3,9.3,8,9.3,8z M17.5,6.9L17.5,6.9c-0.2-0.3-0.5-0.6-0.9-0.7
	c-0.4-0.1-0.8,0-1.1,0.1h0c-0.3,0.2-0.6,0.5-0.7,0.9c-0.1,0.4-0.1,0.8,0.1,1.1l0,0c0.2,0.3,0.5,0.6,0.9,0.7c0.4,0.1,0.8,0.1,1.1-0.1
	l0,0c0.3-0.2,0.6-0.5,0.7-0.9C17.7,7.6,17.6,7.2,17.5,6.9"/>
</svg>
