<?xml version="1.0" encoding="utf-8"?>
<!-- Generator: Adobe Illustrator 25.4.1, SVG Export Plug-In . SVG Version: 6.00 Build 0)  -->
<svg version="1.1" id="Layer_1" xmlns="http://www.w3.org/2000/svg" xmlns:xlink="http://www.w3.org/1999/xlink" x="0px" y="0px"
	 viewBox="0 0 24 24" style="enable-background:new 0 0 24 24;" xml:space="preserve">
<style type="text/css">
	.st0{fill:#512BD4;}
</style>
<path class="st0" d="M24,8.8h-2.5v7.6h-1.4V8.8h-2.5V7.5H24V8.8z M17.1,16.3h-4.8V7.5H17v1.2h-3.2v2.5h3v1.2h-3v2.6h3.4V16.3z
	 M10.4,16.3H8.9L4.8,9.9C4.7,9.7,4.6,9.5,4.5,9.4h0c0,0.2,0,0.6,0,1.2v5.8H3.2V7.5h1.7l4,6.3c0.2,0.3,0.3,0.4,0.3,0.5h0
	c0-0.2-0.1-0.6-0.1-1.2V7.5h1.4L10.4,16.3z M1.7,15.6c0,0.5-0.4,0.8-0.9,0.8c0,0,0,0,0,0c-0.5,0-0.9-0.4-0.9-0.8c0,0,0,0,0,0
	c0-0.5,0.4-0.8,0.9-0.8C1.3,14.8,1.7,15.2,1.7,15.6C1.7,15.6,1.7,15.6,1.7,15.6z"/>
</svg>
