<?xml version="1.0" encoding="utf-8"?>
<!-- Generator: Adobe Illustrator 25.4.1, SVG Export Plug-In . SVG Version: 6.00 Build 0)  -->
<svg version="1.1" id="Layer_1" xmlns="http://www.w3.org/2000/svg" xmlns:xlink="http://www.w3.org/1999/xlink" x="0px" y="0px"
	 viewBox="0 0 24 24" style="enable-background:new 0 0 24 24;" xml:space="preserve">
<style type="text/css">
	.st0{fill:#FFD500;}
</style>
<path class="st0" d="M12,0.9C5.3,0.9,0,6.3,0,13c0,1,0,1.4,0.2,2.3L3.9,18l0.6,4.5h6.1l0.3,0.2c0.4,0.3,0.7,0.4,1.1,0.4
	c0.4,0,0.7-0.1,1-0.3l0.4-0.3h6.1l0.6-4.5l3.7-2.7C24,14.4,24,14,24,13C24,6.3,18.7,0.9,12,0.9z M13,3.1c0.9,0,1.8,0.2,2.5,0.6
	L13,16.3l3.4-12.1c1.1,0.4,1.9,0.9,2.5,1.8l0,0l-4.9,10.6L19.7,7l0,0c0.8,0.7,1.2,1.6,1.5,2.6L15,17.4l6.4-6.5l0,0
	c0.3,0.6,0.4,1.4,0.4,2c0,0.5,0,0.7-0.2,1.2l-3.6,2.6l-0.5,3.7h-4.5l-0.5,0.4c-0.2,0.2-0.5,0.3-0.7,0.3c-0.2,0-0.5-0.1-0.7-0.3
	l-0.5-0.4H6.3l-0.4-3.6l-3.6-2.7c-0.1-0.4-0.2-0.8-0.2-1.3c0-0.7,0.2-1.5,0.4-2.1l0,0L9,17.4L2.8,9.6C3,8.6,3.6,7.5,4.4,6.9l5.5,9.8
	L5,6.1c0.6-0.8,1.4-1.5,2.5-1.8l3.4,12.1L8.4,3.8l0.1,0c0.8-0.5,1.6-0.7,2.5-0.7c0.2,0,0.3,0,0.5,0l0.6,13l0.5-13.1
	C12.7,3.1,12.8,3.1,13,3.1z"/>
</svg>
